# xmcd
#
# Track frame offsets: 
#        150
#        13232
#        25542
#        38150
#        52791
#        64518
#        77625
#        89266
#        100826
#        114090
#        126034
#        139320
#        151080
#        162962
#        176430
#        186493
#        196359
#        209322
#
# Disc length: 2944 seconds
#
# Revision: 0
# Processed by: cddbd v1.5.2PL0 Copyright (c) Steve Scherf et al.
# Submitted via: ExactAudioCopy v1.0b1
#
DISCID=df0b7e12
DTITLE=Sam and Dave - Sweat 'N' Soul - Anthology
DYEAR=1993
DGENRE=R&B
TTITLE0=A Place Nobody Can Find (mono)
TTITLE1=Goodnight Baby (mono)
TTITLE2=You Got Me Hummin' (mono)
TTITLE3=When Something Is Wrong With My Baby (mono)
TTITLE4=Small Portion Of Your Love (mono)
TTITLE5=I Don't Need Nobody (To Tell Me 'Bout My Baby) (mono)
TTITLE6=That's The Way It's Gotta Be (mono)
TTITLE7=Said I Wasn't Gonna Tell Nobody (mono)
TTITLE8=Soothe Me (live) (mono)
TTITLE9=I Can't Stand Up For Falling Down (mono)
TTITLE10=Toe Hold (mono)
TTITLE11=Soul Man (mono)
TTITLE12=May I Baby (mono)
TTITLE13=Just Keep Holding On (mono)
TTITLE14=The Good Runs The Bad Away (mono)
TTITLE15=Rich Kind Of Poverty (mono)
TTITLE16=I've Seen What Loneliness Can Do (mono)
TTITLE17=My Reason For Living (mono)
EXTD=
EXTT0=
EXTT1=
EXTT2=
EXTT3=
EXTT4=
EXTT5=
EXTT6=
EXTT7=
EXTT8=
EXTT9=
EXTT10=
EXTT11=
EXTT12=
EXTT13=
EXTT14=
EXTT15=
EXTT16=
EXTT17=
PLAYORDER=
